<?xml version="1.0" encoding="UTF-8"?>
<svg xmlns="http://www.w3.org/2000/svg" xmlns:xlink="http://www.w3.org/1999/xlink" width="2417.91pt" height="2307.37pt" viewBox="0 0 2417.91 2307.37" version="1.1">
  <path style="stroke:none;fill-rule:evenodd;fill:#00d564;fill-opacity:1;" d="M 1.75 945.761719 C 1.75 944.589844 1.75 943.410156 1.75 942.25 C 5.339844 937.578125 10.554688 938.25 15.449219 938.230469 C 42.941406 938.089844 70.433594 938.171875 97.925781 938.171875 C 180.675781 938.171875 263.4375 938.179688 346.199219 938.160156 C 362.488281 938.160156 362.871094 937.289063 358.730469 921.738281 C 345.414063 871.75 332.148438 821.730469 318.835938 771.730469 C 292.800781 674 266.890625 576.238281 240.800781 478.519531 C 227.523438 428.808594 214.476563 379.050781 201.234375 329.339844 C 200.554688 326.800781 199.9375 324.238281 199.417969 321.660156 C 197.304688 311.320313 200.003906 307.128906 210.609375 305.128906 C 224.976563 302.421875 239.449219 300.398438 253.890625 298.199219 C 296.941406 291.671875 339.9375 284.859375 382.960938 278.210938 C 457.460938 266.691406 531.941406 255.089844 606.421875 243.449219 C 684.074219 231.308594 761.738281 219.21875 839.394531 207.101563 C 933.792969 192.351563 1028.210938 177.730469 1122.628906 163.039063 C 1193.640625 151.988281 1264.660156 140.929688 1335.679688 129.898438 C 1433.558594 114.679688 1531.429688 99.429688 1629.289063 84.171875 C 1708.109375 71.878906 1786.929688 59.628906 1865.738281 47.390625 C 1952.359375 33.949219 2038.980469 20.53125 2125.589844 7 C 2141.441406 4.511719 2157.550781 4.28125 2173.5 2.640625 C 2174.898438 2.628906 2176.300781 2.628906 2177.699219 2.628906 C 2179.421875 2.441406 2181.28125 3.160156 2182.78125 1.75 C 2183.378906 1.75 2183.960938 1.75 2184.539063 1.75 C 2190.101563 6.558594 2188.730469 13.019531 2188.191406 18.960938 C 2184.578125 59.101563 2181.511719 99.28125 2177.808594 139.398438 C 2173.820313 182.730469 2170.199219 226.078125 2166.398438 269.429688 C 2163.101563 306.941406 2159.941406 344.480469 2156.800781 382.019531 C 2153.679688 419.269531 2150.269531 456.480469 2147.058594 493.730469 C 2143.890625 530.671875 2140.691406 567.621094 2137.570313 604.570313 C 2134.410156 641.808594 2131.089844 679.039063 2127.789063 716.269531 C 2125.101563 746.519531 2122.730469 776.808594 2120.078125 807.050781 C 2117.421875 837.300781 2114.769531 867.550781 2112.109375 897.808594 C 2110.21875 919.328125 2108.378906 940.871094 2106.550781 962.398438 C 2105.871094 970.261719 2108.480469 972.699219 2116.699219 973.140625 C 2120.210938 973.328125 2123.71875 973.21875 2127.230469 973.21875 C 2218.460938 973.230469 2309.691406 973.160156 2400.921875 973.328125 C 2407.039063 973.339844 2414.199219 971.46875 2417.910156 979.089844 C 2417.910156 979.679688 2417.910156 980.269531 2417.910156 980.851563 C 2416.578125 982.238281 2417.179688 983.980469 2417.03125 985.578125 C 2417.03125 986.898438 2417.03125 988.199219 2417.03125 989.53125 C 2415.898438 1020.25 2410.398438 1050.371094 2405.328125 1080.601563 C 2391.539063 1162.671875 2377.671875 1244.71875 2363.820313 1326.78125 C 2351.929688 1397.328125 2340.03125 1467.878906 2328.121094 1538.421875 C 2314.261719 1620.480469 2300.25 1702.519531 2286.628906 1784.628906 C 2283.96875 1800.75 2281.019531 1816.839844 2278.289063 1832.96875 C 2277.101563 1840.050781 2273.75 1844.710938 2267.378906 1847.609375 C 2230.449219 1864.5 2193.558594 1881.460938 2156.648438 1898.371094 C 2124.78125 1912.96875 2092.941406 1927.628906 2061.019531 1942.128906 C 2007.308594 1966.550781 1953.78125 1991.378906 1900.089844 2015.871094 C 1861.820313 2033.320313 1823.648438 2050.988281 1785.390625 2068.488281 C 1731.730469 2093.03125 1678.128906 2117.699219 1624.46875 2142.25 C 1586.488281 2159.621094 1548.558594 2177.121094 1510.589844 2194.519531 C 1464.371094 2215.679688 1418.191406 2236.878906 1371.960938 2257.988281 C 1341.140625 2272.050781 1310.300781 2286.121094 1279.660156 2300.578125 C 1272.640625 2303.910156 1264.828125 2303.769531 1258.089844 2307.371094 C 1257.5 2307.371094 1256.910156 2307.371094 1256.320313 2307.371094 C 1251.351563 2303.519531 1252.339844 2297.941406 1252.328125 2292.800781 C 1252.210938 2249.820313 1252.269531 2206.839844 1252.269531 2163.859375 C 1252.261719 2105.378906 1252.269531 2046.921875 1252.269531 1988.429688 C 1252.269531 1985.21875 1252.390625 1981.988281 1252.160156 1978.789063 C 1251.640625 1971.148438 1249.878906 1969.5 1242.21875 1970.558594 C 1219.371094 1973.738281 1196.558594 1977.199219 1173.730469 1980.601563 C 1107.859375 1990.371094 1041.988281 2000.070313 976.109375 2009.859375 C 919.777344 2018.21875 863.445313 2026.601563 807.113281 2034.988281 C 745.289063 2044.199219 683.4375 2053.21875 621.636719 2062.511719 C 557.226563 2072.199219 492.746094 2081.421875 428.378906 2091.390625 C 415.105469 2093.449219 401.800781 2095.371094 388.472656 2097.011719 C 377.363281 2098.378906 373.902344 2095.808594 370.484375 2085.148438 C 355.152344 2037.261719 339.394531 1989.53125 323.804688 1941.730469 C 298.257813 1863.359375 272.730469 1784.988281 247.214844 1706.609375 C 222.320313 1630.179688 197.378906 1553.769531 172.511719 1477.320313 C 147.109375 1399.21875 121.667969 1321.121094 96.203125 1243.03125 C 72.015625 1168.839844 47.835938 1094.640625 23.816406 1020.378906 C 15.84375 995.710938 6.445313 971.410156 1.75 945.761719 "/>
</svg>
