<?xml version="1.0" encoding="UTF-8"?>
<!-- Generator: Adobe Illustrator 25.4.1, SVG Export Plug-In . SVG Version: 6.00 Build 0)  -->
<svg xmlns="http://www.w3.org/2000/svg" xmlns:xlink="http://www.w3.org/1999/xlink" version="1.1" id="Capa_1" x="0px" y="0px" viewBox="0 0 512 512" style="enable-background:new 0 0 512 512;" xml:space="preserve" width="512" height="512">
<path style="fill:#00BBEF;" d="M511.848,268.66c-0.582-40.739-10.545-79.091-28.76-112.644  c79.09-177.354-82.685-152.943-93.47-150.99c-33.553,6.711-67.107,17.496-95.867,31.157c-110.247-1.318-206.113,57.52-237.27,179.75  c57.52-64.711,98.263-91.074,122.23-100.66c-5.033,4.554-10.066,9.347-15.099,14.14c-38.347,38.347-69.503,76.693-95.867,117.437  c-20.372,35.95-43.14,67.107-55.123,107.851c-64.71,234.873,139.007,136.609,167.767,119.833  c31.157,15.339,64.71,23.727,103.057,23.727c100.66,0,186.94-64.709,218.096-153.386h-122.23  c-57.52,91.073-194.13,50.329-198.923-47.934h330.74C512.375,287.114,511.949,275.731,511.848,268.66z M44.498,474.773  c-16.929-15.381-19.173-57.521,16.777-131.817c17.975,52.727,55.123,95.867,100.66,122.23  C138.687,477.888,77.07,504.364,44.498,474.773z M178.711,235.106c1.845-52.727,47.933-95.866,105.453-95.866  c57.52,0,103.057,43.14,105.453,95.866H178.711z M364.453,52.959c21.33-10.306,75.901-31.079,105.453-11.983  c22.194,14.342,31.812,42.465,7.19,105.453C450.733,103.289,412.386,69.736,364.453,52.959z"/>















</svg>
