<?xml version="1.0" encoding="UTF-8"?>
<!-- Generator: Adobe Illustrator 25.4.1, SVG Export Plug-In . SVG Version: 6.00 Build 0)  -->
<svg xmlns="http://www.w3.org/2000/svg" xmlns:xlink="http://www.w3.org/1999/xlink" version="1.1" id="Capa_1" x="0px" y="0px" viewBox="0 0 512.378 512.378" style="enable-background:new 0 0 512.378 512.378;" xml:space="preserve" width="512" height="512">
<g>
	<path id="path2226" style="opacity:0.53;enable-background:new    ;" d="M501.632,276.032   c0,130.53-109.889,236.346-245.443,236.346S10.745,406.562,10.745,276.032S120.634,39.686,256.189,39.686   C391.744,39.686,501.632,145.502,501.632,276.032z"/>
	
		<linearGradient id="path826_00000134251086127579637430000018200323335897147304_" gradientUnits="userSpaceOnUse" x1="576.0997" y1="5711.4243" x2="576.0997" y2="6222.7959" gradientTransform="matrix(0.9965 0 0 -0.9965 -317.8937 6201.3887)">
		<stop offset="0" style="stop-color:#BDBDBD"/>
		<stop offset="1" style="stop-color:#FFFFFF"/>
	</linearGradient>
	
		<path id="path826" style="fill:url(#path826_00000134251086127579637430000018200323335897147304_);stroke:#CDCDCD;stroke-width:0.7565;stroke-linecap:round;stroke-linejoin:round;stroke-miterlimit:11.3386;" d="   M510.979,255.169c0,140.717-114.073,254.791-254.791,254.791l0,0c-140.717,0-254.79-114.074-254.79-254.791   S115.472,0.378,256.189,0.378l0,0C396.906,0.378,510.98,114.452,510.979,255.169L510.979,255.169L510.979,255.169z"/>
	
		<radialGradient id="circle828_00000150824054003769930050000007816109146502824638_" cx="560.8488" cy="5798.9507" r="235.6504" gradientTransform="matrix(1.0812 0 0 -1.0812 -349.1474 6490.9155)" gradientUnits="userSpaceOnUse">
		<stop offset="0" style="stop-color:#00C2E8"/>
		<stop offset="0.25" style="stop-color:#00B8ED"/>
		<stop offset="0.5" style="stop-color:#00AFF3"/>
		<stop offset="0.75" style="stop-color:#0086FC"/>
		<stop offset="1" style="stop-color:#007EE0"/>
	</radialGradient>
	<path id="circle828" style="fill:url(#circle828_00000150824054003769930050000007816109146502824638_);" d="M491.014,255.169   c0,129.69-105.135,234.825-234.825,234.825l0,0c-129.69,0-234.825-105.135-234.825-234.825l0,0   c0-129.69,105.135-234.825,234.825-234.825l0,0C385.879,20.343,491.014,125.478,491.014,255.169L491.014,255.169z"/>
	<path id="rect830" style="fill:#F4F1F2;" d="M256.189,32.589c-1.897,0-3.424,1.527-3.424,3.424v39.491   c0,1.897,1.527,3.424,3.424,3.424c1.897,0,3.424-1.527,3.424-3.424V36.013C259.613,34.116,258.086,32.589,256.189,32.589z    M233.791,34.005c-0.227-0.024-0.46-0.024-0.696,0.003c-1.886,0.197-3.247,1.874-3.05,3.761l1.726,16.521   c0.197,1.886,1.874,3.247,3.761,3.05c1.887-0.197,3.247-1.874,3.05-3.761l-1.724-16.521   C236.685,35.407,235.379,34.159,233.791,34.005z M278.743,34.021c-1.588,0.153-2.894,1.401-3.068,3.051l-1.738,16.52   c-0.199,1.886,1.162,3.565,3.048,3.764c1.886,0.198,3.563-1.161,3.762-3.047l1.738-16.521c0.199-1.886-1.162-3.564-3.048-3.762   C279.202,34.001,278.97,34.001,278.743,34.021L278.743,34.021z M210.784,37.342c-0.228,0.002-0.459,0.024-0.691,0.073   c-1.856,0.393-3.033,2.203-2.641,4.059l8.179,38.634c0.393,1.856,2.203,3.033,4.059,2.641c1.856-0.393,3.033-2.202,2.641-4.058   l-8.179-38.635c-0.344-1.624-1.773-2.728-3.367-2.716L210.784,37.342z M301.75,37.374c-1.595-0.016-3.024,1.089-3.369,2.713   l-8.207,38.629c-0.394,1.855,0.782,3.666,2.638,4.061c1.855,0.394,3.666-0.783,4.06-2.638l8.207-38.629   c0.394-1.855-0.782-3.666-2.638-4.06c-0.232-0.049-0.464-0.073-0.691-0.073L301.75,37.374z M188.826,43.533   c-0.443-0.041-0.901,0.008-1.352,0.158c-1.804,0.586-2.785,2.509-2.199,4.313l5.133,15.799c0.587,1.804,2.511,2.785,4.315,2.199   c1.804-0.586,2.783-2.511,2.197-4.315l-5.133-15.799C191.348,44.535,190.156,43.645,188.826,43.533L188.826,43.533z    M323.583,43.541c-1.33,0.113-2.521,1.002-2.961,2.355l-5.136,15.797c-0.587,1.804,0.394,3.728,2.197,4.315   c1.804,0.586,3.728-0.394,4.315-2.197l5.136-15.799c0.587-1.804-0.394-3.728-2.197-4.315   C324.486,43.551,324.026,43.503,323.583,43.541L323.583,43.541z M167.113,51.479c-0.445,0.008-0.895,0.106-1.328,0.298   c-1.732,0.77-2.508,2.785-1.738,4.519l16.04,36.086c0.77,1.733,2.785,2.508,4.519,1.738c1.732-0.77,2.51-2.785,1.739-4.519   l-16.041-36.086C169.725,52.215,168.447,51.453,167.113,51.479z M345.542,51.6c-1.334-0.024-2.614,0.733-3.193,2.032L326.26,89.696   c-0.773,1.732,0,3.749,1.732,4.521c1.732,0.773,3.749,0,4.522-1.732l16.088-36.064c0.773-1.732,0.001-3.749-1.732-4.521   C346.438,51.707,345.987,51.609,345.542,51.6z M146.958,62.143c-0.657-0.049-1.334,0.098-1.95,0.454   c-1.643,0.948-2.201,3.034-1.253,4.677l8.306,14.386c0.948,1.643,3.034,2.201,4.676,1.253c1.642-0.948,2.201-3.034,1.253-4.677   l-8.306-14.386C149.091,62.823,148.054,62.219,146.958,62.143L146.958,62.143z M365.42,62.143c-1.095,0.073-2.132,0.68-2.725,1.707   l-8.307,14.386c-0.948,1.643-0.388,3.728,1.254,4.677c1.643,0.948,3.728,0.39,4.677-1.253l8.306-14.386   c0.948-1.643,0.39-3.728-1.253-4.677C366.756,62.241,366.078,62.097,365.42,62.143L365.42,62.143z M127.387,74.349   c-0.659,0.024-1.319,0.236-1.894,0.653c-1.535,1.114-1.875,3.246-0.761,4.782l23.188,31.965c1.114,1.535,3.248,1.875,4.783,0.761   c1.535-1.114,1.875-3.246,0.761-4.782l-23.19-31.965C129.578,74.804,128.485,74.312,127.387,74.349L127.387,74.349z    M385.236,74.523c-1.097-0.041-2.191,0.451-2.889,1.41l-23.232,31.934c-1.116,1.534-0.779,3.667,0.755,4.783   c1.534,1.116,3.667,0.78,4.783-0.753l23.231-31.934c1.116-1.534,0.778-3.667-0.755-4.783   C386.554,74.761,385.895,74.547,385.236,74.523L385.236,74.523z M109.894,89.02c-0.874-0.049-1.766,0.243-2.471,0.878   c-1.41,1.269-1.523,3.425-0.254,4.835l11.115,12.347c1.269,1.41,3.425,1.523,4.835,0.254c1.41-1.269,1.523-3.426,0.254-4.836   L112.26,90.151C111.625,89.446,110.768,89.065,109.894,89.02L109.894,89.02z M402.51,89.044c-0.874,0.049-1.731,0.427-2.366,1.132   l-11.115,12.344c-1.269,1.41-1.157,3.567,0.253,4.836c1.409,1.269,3.566,1.155,4.835-0.254l11.116-12.344   c1.269-1.41,1.155-3.567-0.254-4.836C404.274,89.288,403.385,88.999,402.51,89.044L402.51,89.044z M93.127,105.125   c-0.874,0.049-1.73,0.427-2.364,1.132c-1.269,1.41-1.155,3.566,0.254,4.835l29.35,26.421c1.41,1.269,3.566,1.156,4.835-0.254   c1.269-1.41,1.157-3.566-0.253-4.835l-29.351-26.421c-0.705-0.634-1.597-0.924-2.471-0.878L93.127,105.125z M419.357,105.241   c-0.874-0.049-1.767,0.242-2.472,0.876l-29.368,26.4c-1.411,1.268-1.527,3.424-0.259,4.835c1.268,1.411,3.426,1.525,4.836,0.257   l29.369-26.4c1.411-1.268,1.525-3.424,0.257-4.835C421.087,105.669,420.231,105.287,419.357,105.241z M79.184,123.053   c-1.098-0.041-2.192,0.454-2.889,1.413c-1.115,1.535-0.777,3.667,0.758,4.782l13.439,9.764c1.535,1.115,3.666,0.778,4.781-0.756   c1.115-1.535,0.778-3.668-0.756-4.783l-13.439-9.764C80.504,123.29,79.843,123.077,79.184,123.053L79.184,123.053z    M433.287,123.178c-0.659,0.024-1.319,0.235-1.894,0.653l-13.445,9.755c-1.535,1.114-1.875,3.248-0.761,4.783   c1.114,1.535,3.246,1.873,4.781,0.76l13.446-9.755c1.535-1.114,1.873-3.246,0.76-4.782   C435.478,123.633,434.384,123.141,433.287,123.178L433.287,123.178z M66.155,142.177c-1.096,0.073-2.132,0.68-2.725,1.707   c-0.948,1.643-0.39,3.728,1.253,4.677l34.199,19.745c1.642,0.948,3.728,0.39,4.677-1.253c0.948-1.643,0.39-3.728-1.253-4.677   l-34.199-19.745C67.491,142.275,66.812,142.131,66.155,142.177L66.155,142.177z M446.223,142.177   c-0.657-0.049-1.336,0.098-1.952,0.454l-34.199,19.745c-1.642,0.948-2.201,3.034-1.253,4.677s3.034,2.201,4.677,1.253   l34.201-19.745c1.642-0.948,2.201-3.034,1.253-4.677C448.357,142.857,447.319,142.254,446.223,142.177L446.223,142.177z    M56.304,162.561c-1.334-0.033-2.614,0.731-3.193,2.03c-0.773,1.732,0,3.749,1.732,4.521l15.172,6.767   c1.732,0.773,3.749,0.001,4.522-1.732c0.773-1.732-0.001-3.749-1.733-4.521l-15.171-6.767   C57.2,162.665,56.749,162.57,56.304,162.561z M456.141,162.701c-0.445,0.008-0.897,0.106-1.33,0.298l-15.175,6.756   c-1.733,0.772-2.508,2.787-1.736,4.52c0.772,1.733,2.789,2.508,4.522,1.736l15.175-6.757c1.733-0.771,2.506-2.787,1.735-4.52   C458.753,163.435,457.475,162.675,456.141,162.701L456.141,162.701z M47.524,183.865c-1.33,0.111-2.522,1-2.963,2.352   c-0.587,1.803,0.39,3.728,2.194,4.316l37.548,12.235c1.803,0.587,3.729-0.391,4.316-2.194c0.587-1.803-0.39-3.729-2.194-4.316   l-37.548-12.235C48.427,183.876,47.967,183.828,47.524,183.865L47.524,183.865z M464.905,184.012   c-0.443-0.041-0.901,0.008-1.352,0.158l-37.556,12.208c-1.804,0.586-2.784,2.511-2.197,4.315c0.587,1.804,2.511,2.784,4.315,2.197   l37.555-12.208c1.804-0.586,2.785-2.511,2.199-4.315C467.427,185.014,466.234,184.124,464.905,184.012L464.905,184.012z    M42.054,206.229c-1.595-0.016-3.025,1.091-3.37,2.714c-0.394,1.855,0.782,3.666,2.638,4.061l16.249,3.453   c1.855,0.394,3.666-0.783,4.06-2.637c0.394-1.855-0.782-3.666-2.638-4.061l-16.248-3.453c-0.232-0.049-0.464-0.073-0.691-0.073   L42.054,206.229z M470.332,206.262c-0.228,0.002-0.458,0.033-0.69,0.073l-16.249,3.452c-1.855,0.394-3.032,2.204-2.637,4.059   c0.394,1.855,2.205,3.033,4.06,2.639l16.248-3.452c1.855-0.394,3.033-2.205,2.639-4.061c-0.345-1.623-1.776-2.728-3.37-2.714   L470.332,206.262z M37.913,228.724c-1.588,0.152-2.895,1.398-3.069,3.048c-0.199,1.886,1.158,3.566,3.044,3.765l39.272,4.152   c1.886,0.199,3.566-1.159,3.765-3.045c0.199-1.886-1.159-3.566-3.045-3.765l-39.272-4.152   C38.372,228.703,38.14,228.703,37.913,228.724L37.913,228.724z M474.502,229.02c-0.227-0.024-0.46-0.024-0.696,0.003l-39.276,4.099   c-1.886,0.197-3.246,1.874-3.05,3.76c0.197,1.886,1.874,3.247,3.761,3.05l39.276-4.099c1.886-0.197,3.246-1.874,3.05-3.761   C477.394,230.421,476.089,229.174,474.502,229.02L474.502,229.02z M37.248,251.751c-1.897,0-3.423,1.527-3.423,3.424   c0,1.897,1.527,3.424,3.423,3.424H53.86c1.897,0,3.425-1.527,3.425-3.424s-1.528-3.424-3.425-3.424H37.248z M458.518,251.751   c-1.897,0-3.424,1.527-3.424,3.424c0,1.897,1.527,3.424,3.424,3.424h16.611c1.897,0,3.424-1.527,3.424-3.424   s-1.527-3.424-3.424-3.424H458.518z M77.834,270.415c-0.227-0.024-0.459-0.024-0.695,0.003l-39.278,4.099   c-1.886,0.197-3.246,1.874-3.05,3.76c0.197,1.886,1.874,3.247,3.761,3.05l39.278-4.099c1.886-0.197,3.246-1.874,3.05-3.761   C80.727,271.817,79.422,270.569,77.834,270.415L77.834,270.415z M434.523,270.657c-1.588,0.152-2.895,1.398-3.069,3.048   c-0.199,1.886,1.158,3.566,3.044,3.765l39.272,4.152c1.886,0.199,3.566-1.159,3.765-3.045c0.199-1.886-1.159-3.566-3.045-3.765   l-39.27-4.152C434.984,270.636,434.75,270.636,434.523,270.657L434.523,270.657z M58.256,293.786   c-0.228,0.002-0.459,0.024-0.691,0.073l-16.249,3.452c-1.855,0.394-3.032,2.205-2.638,4.061c0.394,1.855,2.205,3.032,4.06,2.637   l16.249-3.45c1.855-0.394,3.032-2.205,2.637-4.06c-0.345-1.624-1.774-2.728-3.369-2.714V293.786z M454.118,293.819   c-1.595-0.016-3.024,1.089-3.369,2.713c-0.394,1.855,0.781,3.666,2.636,4.061l16.249,3.453c1.855,0.394,3.666-0.781,4.06-2.636   c0.394-1.855-0.782-3.668-2.637-4.062l-16.248-3.453c-0.232-0.049-0.464-0.073-0.691-0.073L454.118,293.819z M85.618,307.303   c-0.443-0.041-0.901,0.008-1.352,0.158L46.71,319.669c-1.804,0.586-2.784,2.511-2.197,4.315c0.587,1.804,2.511,2.784,4.315,2.197   l37.555-12.208c1.804-0.586,2.785-2.511,2.199-4.315C88.141,308.306,86.948,307.416,85.618,307.303L85.618,307.303z    M426.723,307.425c-1.33,0.111-2.522,1-2.963,2.352c-0.587,1.803,0.39,3.729,2.194,4.316l37.547,12.235   c1.803,0.587,3.729-0.391,4.316-2.194c0.588-1.803-0.39-3.729-2.194-4.316l-37.547-12.235   C427.626,307.436,427.167,307.388,426.723,307.425L426.723,307.425z M71.287,334.042c-0.445,0.008-0.895,0.104-1.328,0.297   l-15.177,6.757c-1.733,0.771-2.506,2.787-1.735,4.52c0.772,1.733,2.787,2.506,4.52,1.735l15.177-6.756   c1.733-0.771,2.506-2.787,1.735-4.52C73.9,334.776,72.621,334.016,71.287,334.042L71.287,334.042z M441.037,334.172   c-1.334-0.033-2.614,0.731-3.193,2.03c-0.773,1.732-0.001,3.749,1.732,4.521l15.171,6.767c1.732,0.773,3.749,0,4.522-1.732   c0.773-1.732,0-3.749-1.732-4.521l-15.171-6.768C441.933,334.277,441.482,334.181,441.037,334.172L441.037,334.172z    M100.835,341.592c-0.657-0.049-1.336,0.098-1.952,0.454l-34.199,19.745c-1.642,0.948-2.201,3.034-1.253,4.677   c0.948,1.643,3.034,2.201,4.677,1.253l34.199-19.744c1.642-0.948,2.201-3.035,1.253-4.678   C102.966,342.272,101.93,341.668,100.835,341.592L100.835,341.592z M411.545,341.592c-1.096,0.073-2.133,0.68-2.726,1.707   c-0.948,1.643-0.39,3.73,1.253,4.678l34.199,19.744c1.643,0.948,3.73,0.39,4.678-1.253s0.39-3.728-1.253-4.677l-34.201-19.745   C412.88,341.69,412.202,341.546,411.545,341.592L411.545,341.592z M92.305,370.568c-0.659,0.024-1.319,0.237-1.894,0.655   l-13.445,9.755c-1.535,1.114-1.875,3.246-0.761,4.782c1.114,1.535,3.246,1.875,4.781,0.761l13.446-9.755   c1.535-1.114,1.875-3.246,0.761-4.781C94.497,371.023,93.402,370.53,92.305,370.568L92.305,370.568z M419.993,370.683   c-1.098-0.041-2.192,0.454-2.889,1.413c-1.115,1.534-0.777,3.668,0.758,4.783l13.439,9.764c1.535,1.115,3.667,0.777,4.781-0.758   c1.115-1.535,0.778-3.667-0.756-4.782l-13.439-9.764C421.312,370.921,420.652,370.706,419.993,370.683L419.993,370.683z    M122.755,371.865c-0.874-0.049-1.765,0.242-2.471,0.876l-29.369,26.4c-1.411,1.268-1.525,3.424-0.257,4.835   c1.268,1.411,3.424,1.525,4.835,0.257l29.369-26.4c1.411-1.268,1.525-3.424,0.257-4.835   C124.486,372.293,123.629,371.912,122.755,371.865z M389.542,371.959c-0.874,0.049-1.731,0.427-2.366,1.132   c-1.269,1.41-1.155,3.566,0.254,4.835l29.35,26.421c1.41,1.269,3.567,1.156,4.836-0.254c1.269-1.41,1.155-3.566-0.254-4.835   l-29.351-26.421C391.306,372.203,390.416,371.914,389.542,371.959L389.542,371.959z M150.617,397.04   c-1.097-0.041-2.193,0.451-2.89,1.41l-23.231,31.934c-1.116,1.534-0.78,3.667,0.753,4.783c1.534,1.116,3.667,0.78,4.783-0.754   l23.231-31.934c1.116-1.534,0.78-3.667-0.753-4.783C151.935,397.278,151.275,397.063,150.617,397.04z M361.571,397.184   c-0.659,0.024-1.319,0.235-1.894,0.653c-1.535,1.114-1.875,3.246-0.761,4.782l23.188,31.965c1.114,1.535,3.246,1.875,4.781,0.761   c1.535-1.114,1.875-3.246,0.761-4.781l-23.188-31.965C363.762,397.639,362.669,397.146,361.571,397.184L361.571,397.184z    M120.627,402.116c-0.874,0.049-1.731,0.427-2.366,1.132l-11.115,12.344c-1.269,1.41-1.157,3.567,0.253,4.836   c1.41,1.269,3.566,1.155,4.835-0.255l11.116-12.344c1.269-1.41,1.155-3.567-0.254-4.836   C122.392,402.359,121.502,402.07,120.627,402.116L120.627,402.116z M391.731,402.132c-0.874-0.049-1.764,0.243-2.469,0.878   c-1.41,1.269-1.523,3.425-0.255,4.835l11.113,12.347c1.269,1.41,3.425,1.523,4.835,0.254c1.41-1.269,1.523-3.426,0.254-4.836   l-11.113-12.345C393.461,402.558,392.604,402.178,391.731,402.132L391.731,402.132z M183.058,415.827   c-1.334-0.033-2.612,0.731-3.192,2.03l-16.09,36.064c-0.773,1.732-0.001,3.749,1.732,4.521c1.732,0.773,3.749,0,4.521-1.732   l16.09-36.064c0.773-1.732,0.001-3.749-1.732-4.521C183.955,415.931,183.503,415.835,183.058,415.827L183.058,415.827z    M329.104,415.926c-0.445,0.008-0.897,0.104-1.33,0.297c-1.732,0.77-2.508,2.785-1.738,4.519l16.039,36.086   c0.77,1.732,2.787,2.508,4.52,1.738c1.732-0.77,2.508-2.785,1.738-4.518l-16.04-36.086   C331.716,416.661,330.438,415.9,329.104,415.926L329.104,415.926z M154.785,426.977c-1.095,0.073-2.132,0.68-2.725,1.707   l-8.306,14.386c-0.948,1.643-0.39,3.728,1.253,4.677c1.642,0.948,3.728,0.39,4.676-1.253l8.306-14.386   c0.948-1.643,0.39-3.728-1.253-4.677C156.121,427.075,155.442,426.931,154.785,426.977L154.785,426.977z M357.593,426.977   c-0.657-0.049-1.334,0.098-1.95,0.454c-1.642,0.948-2.202,3.034-1.253,4.677l8.306,14.386c0.948,1.643,3.034,2.201,4.677,1.253   c1.643-0.948,2.201-3.034,1.253-4.677l-8.306-14.386C359.726,427.657,358.689,427.054,357.593,426.977L357.593,426.977z    M218.876,427.493c-1.595-0.016-3.024,1.089-3.369,2.713l-8.207,38.629c-0.394,1.855,0.782,3.666,2.638,4.06   c1.855,0.394,3.666-0.783,4.06-2.637l8.207-38.629c0.394-1.855-0.782-3.666-2.638-4.06c-0.232-0.049-0.464-0.073-0.691-0.073   L218.876,427.493z M293.381,427.517c-0.228,0.002-0.458,0.024-0.69,0.073c-1.856,0.393-3.033,2.202-2.641,4.058l8.179,38.635   c0.393,1.856,2.203,3.033,4.059,2.641c1.856-0.393,3.033-2.203,2.641-4.059l-8.18-38.632   C296.404,428.608,294.976,427.504,293.381,427.517L293.381,427.517z M256.189,431.413c-1.897,0-3.424,1.527-3.424,3.424v39.491   c0,1.897,1.527,3.424,3.424,3.424c1.897,0,3.424-1.527,3.424-3.424v-39.491C259.613,432.94,258.086,431.413,256.189,431.413z    M193.343,444.174c-1.33,0.113-2.523,1.002-2.963,2.355l-5.135,15.799c-0.587,1.804,0.394,3.728,2.197,4.315   c1.804,0.586,3.728-0.395,4.315-2.199l5.135-15.797c0.587-1.804-0.394-3.728-2.197-4.315   C194.245,444.186,193.787,444.137,193.343,444.174L193.343,444.174z M319.008,444.182c-0.443-0.041-0.901,0.008-1.352,0.157   c-1.804,0.586-2.785,2.511-2.199,4.315l5.133,15.799c0.587,1.804,2.511,2.783,4.315,2.197c1.804-0.586,2.785-2.509,2.199-4.313   l-5.135-15.799C321.529,445.185,320.338,444.296,319.008,444.182L319.008,444.182z M234.699,452.981   c-1.588,0.153-2.896,1.399-3.069,3.05l-1.736,16.521c-0.199,1.886,1.16,3.564,3.047,3.762s3.565-1.161,3.764-3.047l1.736-16.52   c0.199-1.886-1.16-3.565-3.047-3.764C235.158,452.96,234.926,452.96,234.699,452.981z M277.542,452.998   c-0.227-0.024-0.46-0.024-0.696,0.003c-1.886,0.197-3.247,1.874-3.05,3.76l1.726,16.523c0.197,1.887,1.874,3.245,3.761,3.048   c1.886-0.197,3.247-1.874,3.05-3.761l-1.724-16.521C280.436,454.4,279.13,453.152,277.542,452.998L277.542,452.998z"/>
	<path id="path2150" style="opacity:0.409;enable-background:new    ;" d="M416.659,118.225L229.344,227.056L110.911,413.504   L284.17,285.173L416.659,118.225z"/>
	<path id="path2096" style="fill:#FF504F;" d="M283.034,283.282l-53.69-56.226l190.46-128.122L283.034,283.282z"/>
	<path id="path2099" style="fill:#F0F0F0;" d="M283.034,283.282l-53.69-56.226L92.574,411.404L283.034,283.282z"/>
	<polygon style="fill:#B5B5B5;" points="92.574,411.404 283.034,283.282 256.19,255.167  "/>
	<polygon style="fill:#C43E3D;" points="419.804,98.933 256.188,255.169 283.032,283.283 283.034,283.281  "/>
</g>















</svg>
